<svg width="542" height="433" viewBox="0 0 542 433" fill="none" xmlns="http://www.w3.org/2000/svg">
<g opacity="0.5" filter="url(#filter0_f_68_120)">
<path opacity="0.8" d="M242.777 167.941C165.954 131.266 117.051 131.216 103.384 149.107L99.8415 201.901L113.196 240.646L145.074 254.446L182.824 245.76L221.942 207.145L242.777 167.941Z" fill="url(#paint0_linear_68_120)"/>
<path opacity="0.8" d="M103.47 163.184C120.99 167.919 176.025 167.246 256.01 126.666L241.63 174.159L211.157 219.568L177.791 248.464L140.075 253.502L102.462 224.4L103.47 163.184Z" fill="url(#paint1_linear_68_120)"/>
<path fill-rule="evenodd" clip-rule="evenodd" d="M223.269 38.0224C223.282 38.0279 223.295 38.0335 223.308 38.0391L279.257 62.2595L283.118 63.9307L282.164 68.0275C269.93 120.568 252.313 164.053 232.66 196.292C213.117 228.351 191.146 249.957 169.872 257.589C160.545 260.935 154.061 264.872 149.093 269.443C144.113 274.023 140.425 279.451 136.937 286.119C134.408 290.955 132.086 296.23 129.446 302.227L129.446 302.228C128.377 304.656 127.255 307.202 126.047 309.886C121.908 319.082 116.903 329.513 109.85 341.253C103.19 352.338 100.552 360.775 100.133 367.224C99.7222 373.535 101.414 378.229 104.045 382.036C106.765 385.972 110.598 389.115 114.726 392.03C115.978 392.913 117.098 393.669 118.222 394.428L118.223 394.429L118.223 394.429L118.225 394.43L118.226 394.431C119.06 394.994 119.897 395.559 120.793 396.179C122.704 397.503 124.662 398.935 126.268 400.482C128.641 402.768 130.479 405.268 131.125 408.039C131.861 411.189 130.896 413.986 129.055 415.997C127.43 417.772 125.297 418.775 123.574 419.361C121.772 419.974 119.903 420.304 118.314 420.443L117.044 420.553L115.873 420.047L68.4521 399.518C68.4388 399.513 68.4255 399.507 68.4122 399.501L19.6194 378.379L18.4491 377.872L17.6606 376.87C16.6744 375.616 15.6355 374.028 14.8493 372.294C14.0978 370.637 13.3694 368.395 13.5516 365.995C13.758 363.276 15.1371 360.66 17.9374 359.04C20.4006 357.615 23.4811 357.244 26.7714 357.41C28.9987 357.522 31.3824 357.97 33.656 358.458C34.7217 358.686 35.7068 358.91 36.6889 359.133L36.6904 359.133L36.6909 359.134C38.0141 359.434 39.3318 359.733 40.8331 360.041C45.7838 361.057 50.6985 361.701 55.4304 360.991C60.0064 360.304 64.5865 358.325 68.9074 353.707C73.3225 348.988 77.6689 341.29 81.1945 328.848C84.9282 315.671 89.1088 304.883 92.9811 295.572C94.1114 292.854 95.201 290.294 96.2399 287.853L96.24 287.853C98.8062 281.823 101.063 276.52 102.858 271.367C105.334 264.26 106.767 257.857 106.7 251.091C106.632 244.34 105.065 236.918 101.122 227.827C92.1287 207.092 92.8471 176.286 102.849 140.097C112.906 103.704 132.558 61.0996 162.496 16.2235L164.831 12.7242L168.691 14.3953L223.269 38.0224ZM220.674 47.8827C220.661 47.8772 220.648 47.8716 220.636 47.866L168.561 25.3228C140.408 68.1871 122.025 108.549 112.564 142.782C102.915 177.698 102.742 205.503 110.081 223.136C113.202 226.771 117.978 232.078 122.724 236.844C125.23 239.361 127.675 241.673 129.83 243.494C131.605 244.994 132.958 245.963 133.861 246.487C134.86 246.787 136.493 247.11 138.802 247.378C141.605 247.704 144.965 247.904 148.514 248.009C155.238 248.208 162.376 248.058 167.163 247.846C185.042 241.131 205.198 221.976 224.053 191.046C242.54 160.72 259.39 119.695 271.379 69.8325L220.674 47.8827Z" fill="url(#paint2_linear_68_120)"/>
</g>
<path opacity="0.8" d="M242.438 168.321C165.616 131.646 116.713 131.597 103.046 149.487L99.5031 202.281L112.858 241.026L144.736 254.826L182.485 246.14L221.604 207.526L242.438 168.321Z" fill="url(#paint3_linear_68_120)"/>
<path opacity="0.8" d="M103.131 163.564C120.651 168.299 175.686 167.626 255.67 127.046L241.29 174.539L210.818 219.948L177.451 248.844L139.736 253.882L102.122 224.78L103.131 163.564Z" fill="url(#paint4_linear_68_120)"/>
<path fill-rule="evenodd" clip-rule="evenodd" d="M224.65 38.6198C224.646 38.6184 224.643 38.617 224.64 38.6156L168.691 14.3952L164.831 12.7241L162.496 16.2233C132.558 61.0994 112.907 103.704 102.849 140.097C92.8472 176.286 92.1287 207.092 101.123 227.827C105.066 236.918 106.632 244.34 106.7 251.091C106.768 257.857 105.334 264.26 102.858 271.366C101.063 276.52 98.8063 281.823 96.2401 287.853L96.2399 287.853C95.2011 290.294 94.1114 292.854 92.9811 295.572C89.1089 304.883 84.9283 315.671 81.1946 328.848C77.6689 341.29 73.3226 348.988 68.9075 353.707C64.5866 358.325 60.0065 360.304 55.4305 360.991C50.6986 361.701 45.7838 361.057 40.8332 360.041C39.3318 359.733 38.0142 359.434 36.691 359.133L36.6905 359.133L36.689 359.133C35.7069 358.91 34.7217 358.686 33.656 358.458C31.3825 357.97 28.9988 357.522 26.7715 357.41C23.4812 357.244 20.4006 357.615 17.9375 359.04C15.1371 360.66 13.7581 363.276 13.5516 365.995C13.3694 368.395 14.0978 370.637 14.8494 372.294C15.6356 374.028 16.6745 375.616 17.6606 376.87L18.4492 377.872L19.6194 378.378L67.08 398.924L68.4123 399.501L115.873 420.047L117.043 420.553L118.314 420.442C119.902 420.304 121.772 419.974 123.574 419.361C125.296 418.775 127.43 417.772 129.055 415.997C130.896 413.985 131.86 411.189 131.125 408.039C130.478 405.267 128.64 402.768 126.268 400.482C124.662 398.935 122.704 397.503 120.792 396.179C119.897 395.559 119.06 394.994 118.226 394.431L118.224 394.43L118.223 394.429L118.223 394.429L118.222 394.428C117.097 393.669 115.978 392.913 114.726 392.03C110.597 389.115 106.765 385.972 104.044 382.035C101.413 378.229 99.7218 373.535 100.132 367.224C100.552 360.775 103.19 352.338 109.85 341.253C116.903 329.512 121.907 319.082 126.047 309.886C127.255 307.202 128.376 304.655 129.445 302.227L129.445 302.227C132.086 296.229 134.408 290.955 136.937 286.119C140.424 279.451 144.113 274.023 149.092 269.442C154.061 264.872 160.545 260.935 169.872 257.589C191.146 249.957 213.117 228.351 232.66 196.292C252.313 164.053 269.93 120.568 282.163 68.0274L283.117 63.9305L279.257 62.2594L224.65 38.6198ZM133.861 246.487C134.861 246.787 136.494 247.11 138.802 247.378C141.605 247.703 144.965 247.904 148.514 248.009C155.238 248.208 162.376 248.058 167.162 247.846C185.041 241.131 205.198 221.976 224.053 191.046C242.54 160.72 259.39 119.694 271.378 69.8324L219.303 47.2891C219.3 47.2877 219.297 47.2864 219.294 47.285L168.561 25.3226C140.408 68.1869 122.025 108.549 112.564 142.782C102.915 177.697 102.742 205.503 110.081 223.136C113.202 226.77 117.978 232.078 122.724 236.844C125.23 239.36 127.675 241.673 129.83 243.494C131.606 244.994 132.959 245.964 133.861 246.487Z" fill="url(#paint5_linear_68_120)"/>
<g opacity="0.5" filter="url(#filter1_f_68_120)">
<path d="M261.728 29.8221V29.8221C266.74 43.3648 277.417 54.0423 290.96 59.0535V59.0535V59.0535C277.417 64.0647 266.74 74.7422 261.728 88.2848V88.2848V88.2848C256.717 74.7422 246.04 64.0647 232.497 59.0535V59.0535V59.0535C246.04 54.0423 256.717 43.3648 261.728 29.8221V29.8221Z" fill="#EAF2FF"/>
</g>
<g opacity="0.5" filter="url(#filter2_f_68_120)">
<path d="M280.88 88.285V88.285C283.472 95.2898 288.995 100.813 296 103.405V103.405V103.405C288.995 105.997 283.472 111.52 280.88 118.524V118.524V118.524C278.288 111.52 272.766 105.997 265.761 103.405V103.405V103.405C272.766 100.813 278.288 95.2898 280.88 88.285V88.285Z" fill="#EAF2FF"/>
</g>
<g opacity="0.5" filter="url(#filter3_f_68_120)">
<path d="M182.602 125.58V125.58C184.935 131.885 189.906 136.855 196.21 139.188V139.188V139.188C189.906 141.521 184.935 146.491 182.602 152.796V152.796V152.796C180.27 146.491 175.299 141.521 168.995 139.188V139.188V139.188C175.299 136.855 180.27 131.885 182.602 125.58V125.58Z" fill="#E9AA2B"/>
</g>
<g opacity="0.5" filter="url(#filter4_f_68_120)">
<path d="M135.227 148.764V148.764C138.424 157.403 145.236 164.214 153.875 167.411V167.411V167.411C145.236 170.608 138.424 177.419 135.227 186.059V186.059V186.059C132.03 177.419 125.219 170.608 116.58 167.411V167.411V167.411C125.219 164.214 132.03 157.403 135.227 148.764V148.764Z" fill="#E9AA2B"/>
</g>
<path d="M261.728 29.8221V29.8221C266.74 43.3648 277.417 54.0423 290.96 59.0535V59.0535V59.0535C277.417 64.0647 266.74 74.7422 261.728 88.2848V88.2848V88.2848C256.717 74.7422 246.04 64.0647 232.497 59.0535V59.0535V59.0535C246.04 54.0423 256.717 43.3648 261.728 29.8221V29.8221Z" fill="#EAF2FF"/>
<path d="M280.88 88.285V88.285C283.472 95.2898 288.995 100.813 296 103.405V103.405V103.405C288.995 105.997 283.472 111.52 280.88 118.524V118.524V118.524C278.288 111.52 272.766 105.997 265.761 103.405V103.405V103.405C272.766 100.813 278.288 95.2898 280.88 88.285V88.285Z" fill="#EAF2FF"/>
<path d="M182.602 125.58V125.58C184.935 131.885 189.906 136.855 196.21 139.188V139.188V139.188C189.906 141.521 184.935 146.491 182.602 152.796V152.796V152.796C180.27 146.491 175.299 141.521 168.995 139.188V139.188V139.188C175.299 136.855 180.27 131.885 182.602 125.58V125.58Z" fill="#E9AA2B"/>
<path d="M135.227 148.764V148.764C138.424 157.403 145.236 164.214 153.875 167.411V167.411V167.411C145.236 170.608 138.424 177.419 135.227 186.059V186.059V186.059C132.03 177.419 125.219 170.608 116.58 167.411V167.411V167.411C125.219 164.214 132.03 157.403 135.227 148.764V148.764Z" fill="#E9AA2B"/>
<g opacity="0.6">
<g opacity="0.5" filter="url(#filter5_f_68_120)">
<path opacity="0.8" d="M364.72 218.63C420.609 191.949 456.186 191.913 466.129 204.928L468.707 243.337L458.991 271.524L435.8 281.563L408.336 275.244L379.877 247.152L364.72 218.63Z" fill="url(#paint6_linear_68_120)"/>
<path opacity="0.8" d="M466.067 215.169C453.321 218.615 413.283 218.125 355.094 188.603L365.555 223.154L387.724 256.19L411.998 277.212L439.436 280.877L466.801 259.705L466.067 215.169Z" fill="url(#paint7_linear_68_120)"/>
<path fill-rule="evenodd" clip-rule="evenodd" d="M378.912 124.114C378.903 124.118 378.893 124.122 378.884 124.126L338.181 141.747L335.372 142.962L336.066 145.943C344.966 184.167 357.783 215.802 372.08 239.256C386.298 262.579 402.282 278.297 417.759 283.85C424.544 286.284 429.261 289.148 432.876 292.474C436.499 295.806 439.182 299.755 441.719 304.606C443.559 308.124 445.248 311.961 447.169 316.324L447.169 316.325L447.17 316.326C447.947 318.092 448.763 319.944 449.642 321.897C452.653 328.587 456.294 336.175 461.425 344.716C466.27 352.781 468.19 358.919 468.495 363.61C468.793 368.202 467.563 371.616 465.649 374.386C463.67 377.249 460.881 379.536 457.878 381.656C456.967 382.299 456.152 382.85 455.334 383.402C454.726 383.812 454.117 384.223 453.464 384.675C452.074 385.639 450.65 386.68 449.481 387.806C447.755 389.468 446.418 391.287 445.947 393.303C445.412 395.595 446.114 397.629 447.454 399.093C448.636 400.384 450.188 401.114 451.441 401.54C452.752 401.986 454.112 402.226 455.268 402.327L456.192 402.408L457.043 402.039L491.544 387.104C491.553 387.1 491.562 387.096 491.572 387.092L527.069 371.725L527.92 371.357L528.494 370.627C529.211 369.716 529.967 368.56 530.539 367.299C531.086 366.093 531.616 364.462 531.483 362.716C531.333 360.738 530.33 358.835 528.292 357.656C526.5 356.619 524.259 356.35 521.865 356.47C520.245 356.552 518.511 356.878 516.857 357.233C516.081 357.399 515.364 357.562 514.649 357.724C513.686 357.943 512.728 358.161 511.636 358.385C508.034 359.124 504.458 359.592 501.016 359.075C497.687 358.576 494.355 357.136 491.211 353.776C487.999 350.343 484.837 344.743 482.272 335.691C479.556 326.105 476.515 318.257 473.698 311.483C472.875 309.506 472.083 307.643 471.327 305.867C469.46 301.48 467.818 297.623 466.512 293.873C464.711 288.703 463.668 284.045 463.717 279.123C463.766 274.211 464.906 268.812 467.775 262.198C474.318 247.113 473.795 224.702 466.519 198.374C459.202 171.898 444.905 140.903 423.125 108.255L421.427 105.709L418.618 106.925L378.912 124.114ZM380.8 131.287C380.809 131.283 380.819 131.279 380.828 131.275L418.713 114.875C439.194 146.059 452.568 175.423 459.451 200.327C466.471 225.729 466.597 245.957 461.258 258.785C458.987 261.429 455.512 265.291 452.059 268.758C450.237 270.589 448.458 272.271 446.889 273.596C445.598 274.687 444.614 275.392 443.957 275.773C443.23 275.991 442.042 276.226 440.362 276.422C438.323 276.658 435.879 276.804 433.297 276.88C428.405 277.025 423.212 276.916 419.73 276.762C406.723 271.877 392.059 257.941 378.342 235.439C364.893 213.377 352.634 183.531 343.912 147.256L380.8 131.287Z" fill="url(#paint8_linear_68_120)"/>
</g>
<path opacity="0.8" d="M364.967 218.907C420.855 192.226 456.433 192.19 466.375 205.205L468.953 243.613L459.237 271.8L436.046 281.84L408.583 275.521L380.124 247.429L364.967 218.907Z" fill="url(#paint9_linear_68_120)"/>
<path opacity="0.8" d="M466.313 215.446C453.568 218.891 413.529 218.401 355.34 188.879L365.801 223.43L387.97 256.466L412.245 277.488L439.683 281.153L467.047 259.981L466.313 215.446Z" fill="url(#paint10_linear_68_120)"/>
<path fill-rule="evenodd" clip-rule="evenodd" d="M377.908 124.549C377.91 124.548 377.913 124.547 377.915 124.546L418.618 106.925L421.427 105.709L423.125 108.255C444.905 140.903 459.202 171.898 466.519 198.374C473.795 224.702 474.318 247.113 467.775 262.198C464.906 268.812 463.766 274.211 463.717 279.122C463.668 284.045 464.711 288.703 466.512 293.873C467.818 297.622 469.46 301.48 471.327 305.867C472.083 307.643 472.875 309.506 473.698 311.483C476.515 318.257 479.556 326.105 482.272 335.691C484.837 344.743 487.999 350.343 491.211 353.776C494.355 357.136 497.687 358.576 501.016 359.075C504.458 359.592 508.034 359.124 511.635 358.385C512.728 358.16 513.686 357.943 514.649 357.724C515.364 357.562 516.081 357.399 516.857 357.233C518.511 356.878 520.245 356.552 521.865 356.47C524.259 356.35 526.5 356.619 528.292 357.656C530.33 358.834 531.333 360.738 531.483 362.716C531.616 364.462 531.086 366.093 530.539 367.299C529.967 368.56 529.211 369.715 528.494 370.627L527.92 371.356L527.069 371.725L492.541 386.672L491.572 387.092L457.044 402.039L456.192 402.408L455.268 402.327C454.112 402.226 452.752 401.986 451.441 401.54C450.188 401.114 448.636 400.384 447.454 399.093C446.114 397.629 445.413 395.595 445.948 393.303C446.418 391.287 447.755 389.468 449.481 387.805C450.65 386.68 452.074 385.638 453.465 384.675C454.117 384.223 454.726 383.812 455.334 383.402C456.152 382.849 456.967 382.299 457.878 381.656C460.882 379.536 463.67 377.249 465.649 374.386C467.563 371.616 468.794 368.201 468.495 363.61C468.19 358.919 466.271 352.781 461.425 344.716C456.294 336.175 452.653 328.586 449.642 321.897C448.763 319.944 447.947 318.091 447.17 316.325C445.249 311.961 443.559 308.124 441.719 304.606C439.182 299.755 436.499 295.806 432.876 292.473C429.262 289.148 424.545 286.284 417.759 283.85C402.282 278.297 386.298 262.579 372.081 239.256C357.783 215.802 344.966 184.166 336.066 145.943L335.372 142.962L338.181 141.747L377.908 124.549ZM443.957 275.773C443.23 275.992 442.042 276.226 440.363 276.421C438.323 276.658 435.879 276.804 433.297 276.88C428.406 277.025 423.213 276.916 419.73 276.762C406.723 271.876 392.059 257.941 378.342 235.439C364.893 213.377 352.634 183.531 343.913 147.256L381.797 130.856C381.8 130.855 381.802 130.854 381.804 130.853L418.713 114.875C439.194 146.059 452.568 175.422 459.451 200.327C466.471 225.728 466.596 245.957 461.258 258.785C458.987 261.429 455.512 265.29 452.059 268.758C450.237 270.589 448.458 272.271 446.889 273.596C445.598 274.687 444.614 275.393 443.957 275.773Z" fill="url(#paint11_linear_68_120)"/>
<g opacity="0.5" filter="url(#filter6_f_68_120)">
<path d="M350.933 118.148V118.148C347.287 128.001 339.519 135.768 329.667 139.414V139.414V139.414C339.519 143.06 347.287 150.828 350.933 160.68V160.68V160.68C354.578 150.828 362.346 143.06 372.199 139.414V139.414V139.414C362.346 135.768 354.578 128.001 350.933 118.148V118.148Z" fill="#EAF2FF"/>
</g>
<g opacity="0.5" filter="url(#filter7_f_68_120)">
<path d="M337 160.68V160.68C335.114 165.776 331.096 169.794 326 171.68V171.68V171.68C331.096 173.566 335.114 177.584 337 182.68V182.68V182.68C338.886 177.584 342.903 173.566 348 171.68V171.68V171.68C342.903 169.794 338.886 165.776 337 160.68V160.68Z" fill="#EAF2FF"/>
</g>
<g opacity="0.5" filter="url(#filter8_f_68_120)">
<path d="M408.498 187.813V187.813C406.801 192.399 403.185 196.015 398.598 197.712V197.712V197.712C403.185 199.41 406.801 203.026 408.498 207.612V207.612V207.612C410.195 203.026 413.811 199.41 418.397 197.712V197.712V197.712C413.811 196.015 410.195 192.399 408.498 187.813V187.813Z" fill="#E9AA2B"/>
</g>
<g opacity="0.5" filter="url(#filter9_f_68_120)">
<path d="M442.963 204.679V204.679C440.637 210.964 435.682 215.919 429.397 218.245V218.245V218.245C435.682 220.571 440.637 225.526 442.963 231.811V231.811V231.811C445.289 225.526 450.244 220.571 456.529 218.245V218.245V218.245C450.244 215.919 445.289 210.964 442.963 204.679V204.679Z" fill="#E9AA2B"/>
</g>
<path d="M350.933 118.148V118.148C347.287 128.001 339.519 135.768 329.667 139.414V139.414V139.414C339.519 143.06 347.287 150.828 350.933 160.68V160.68V160.68C354.578 150.828 362.346 143.06 372.199 139.414V139.414V139.414C362.346 135.768 354.578 128.001 350.933 118.148V118.148Z" fill="#EAF2FF"/>
<path d="M337 160.68V160.68C335.114 165.776 331.096 169.794 326 171.68V171.68V171.68C331.096 173.566 335.114 177.584 337 182.68V182.68V182.68C338.886 177.584 342.903 173.566 348 171.68V171.68V171.68C342.903 169.794 338.886 165.776 337 160.68V160.68Z" fill="#EAF2FF"/>
<path d="M408.498 187.813V187.813C406.801 192.399 403.185 196.015 398.598 197.712V197.712V197.712C403.185 199.41 406.801 203.026 408.498 207.612V207.612V207.612C410.195 203.026 413.811 199.41 418.397 197.712V197.712V197.712C413.811 196.015 410.195 192.399 408.498 187.813V187.813Z" fill="#E9AA2B"/>
<path d="M442.963 204.679V204.679C440.637 210.964 435.682 215.919 429.397 218.245V218.245V218.245C435.682 220.571 440.637 225.526 442.963 231.811V231.811V231.811C445.289 225.526 450.244 220.571 456.529 218.245V218.245V218.245C450.244 215.919 445.289 210.964 442.963 204.679V204.679Z" fill="#E9AA2B"/>
</g>
<defs>
<filter id="filter0_f_68_120" x="1.42771" y="0.628513" width="293.786" height="432.021" filterUnits="userSpaceOnUse" color-interpolation-filters="sRGB">
<feFlood flood-opacity="0" result="BackgroundImageFix"/>
<feBlend mode="normal" in="SourceGraphic" in2="BackgroundImageFix" result="shape"/>
<feGaussianBlur stdDeviation="6.04786" result="effect1_foregroundBlur_68_120"/>
</filter>
<filter id="filter1_f_68_120" x="220.401" y="17.7264" width="82.6544" height="82.6541" filterUnits="userSpaceOnUse" color-interpolation-filters="sRGB">
<feFlood flood-opacity="0" result="BackgroundImageFix"/>
<feBlend mode="normal" in="SourceGraphic" in2="BackgroundImageFix" result="shape"/>
<feGaussianBlur stdDeviation="6.04786" result="effect1_foregroundBlur_68_120"/>
</filter>
<filter id="filter2_f_68_120" x="253.665" y="76.1893" width="54.4307" height="54.4308" filterUnits="userSpaceOnUse" color-interpolation-filters="sRGB">
<feFlood flood-opacity="0" result="BackgroundImageFix"/>
<feBlend mode="normal" in="SourceGraphic" in2="BackgroundImageFix" result="shape"/>
<feGaussianBlur stdDeviation="6.04786" result="effect1_foregroundBlur_68_120"/>
</filter>
<filter id="filter3_f_68_120" x="156.899" y="113.484" width="51.4068" height="51.4069" filterUnits="userSpaceOnUse" color-interpolation-filters="sRGB">
<feFlood flood-opacity="0" result="BackgroundImageFix"/>
<feBlend mode="normal" in="SourceGraphic" in2="BackgroundImageFix" result="shape"/>
<feGaussianBlur stdDeviation="6.04786" result="effect1_foregroundBlur_68_120"/>
</filter>
<filter id="filter4_f_68_120" x="104.484" y="136.668" width="61.4869" height="61.4866" filterUnits="userSpaceOnUse" color-interpolation-filters="sRGB">
<feFlood flood-opacity="0" result="BackgroundImageFix"/>
<feBlend mode="normal" in="SourceGraphic" in2="BackgroundImageFix" result="shape"/>
<feGaussianBlur stdDeviation="6.04786" result="effect1_foregroundBlur_68_120"/>
</filter>
<filter id="filter5_f_68_120" x="326.572" y="96.9096" width="213.731" height="314.298" filterUnits="userSpaceOnUse" color-interpolation-filters="sRGB">
<feFlood flood-opacity="0" result="BackgroundImageFix"/>
<feBlend mode="normal" in="SourceGraphic" in2="BackgroundImageFix" result="shape"/>
<feGaussianBlur stdDeviation="4.39986" result="effect1_foregroundBlur_68_120"/>
</filter>
<filter id="filter6_f_68_120" x="320.867" y="109.348" width="60.1312" height="60.1314" filterUnits="userSpaceOnUse" color-interpolation-filters="sRGB">
<feFlood flood-opacity="0" result="BackgroundImageFix"/>
<feBlend mode="normal" in="SourceGraphic" in2="BackgroundImageFix" result="shape"/>
<feGaussianBlur stdDeviation="4.39986" result="effect1_foregroundBlur_68_120"/>
</filter>
<filter id="filter7_f_68_120" x="317.2" y="151.881" width="39.5989" height="39.5987" filterUnits="userSpaceOnUse" color-interpolation-filters="sRGB">
<feFlood flood-opacity="0" result="BackgroundImageFix"/>
<feBlend mode="normal" in="SourceGraphic" in2="BackgroundImageFix" result="shape"/>
<feGaussianBlur stdDeviation="4.39986" result="effect1_foregroundBlur_68_120"/>
</filter>
<filter id="filter8_f_68_120" x="389.798" y="179.013" width="37.3988" height="37.3988" filterUnits="userSpaceOnUse" color-interpolation-filters="sRGB">
<feFlood flood-opacity="0" result="BackgroundImageFix"/>
<feBlend mode="normal" in="SourceGraphic" in2="BackgroundImageFix" result="shape"/>
<feGaussianBlur stdDeviation="4.39986" result="effect1_foregroundBlur_68_120"/>
</filter>
<filter id="filter9_f_68_120" x="420.597" y="195.879" width="44.7318" height="44.7319" filterUnits="userSpaceOnUse" color-interpolation-filters="sRGB">
<feFlood flood-opacity="0" result="BackgroundImageFix"/>
<feBlend mode="normal" in="SourceGraphic" in2="BackgroundImageFix" result="shape"/>
<feGaussianBlur stdDeviation="4.39986" result="effect1_foregroundBlur_68_120"/>
</filter>
<linearGradient id="paint0_linear_68_120" x1="90.8764" y1="125.58" x2="203.266" y2="265.185" gradientUnits="userSpaceOnUse">
<stop stop-color="#523A09"/>
<stop offset="1" stop-color="#523A09" stop-opacity="0"/>
<stop offset="1" stop-color="#523A09" stop-opacity="0"/>
</linearGradient>
<linearGradient id="paint1_linear_68_120" x1="271.808" y1="135.66" x2="76.2607" y2="244.521" gradientUnits="userSpaceOnUse">
<stop stop-color="#755A22"/>
<stop offset="1" stop-color="#755A22" stop-opacity="0"/>
</linearGradient>
<linearGradient id="paint2_linear_68_120" x1="291.618" y1="64.8299" x2="19.0433" y2="375.541" gradientUnits="userSpaceOnUse">
<stop stop-color="#31353D"/>
<stop offset="1" stop-color="#1D1F24"/>
</linearGradient>
<linearGradient id="paint3_linear_68_120" x1="93.3966" y1="133.644" x2="215.362" y2="264.177" gradientUnits="userSpaceOnUse">
<stop stop-color="#5F440C"/>
<stop offset="1" stop-color="#5F440C" stop-opacity="0"/>
</linearGradient>
<linearGradient id="paint4_linear_68_120" x1="256.688" y1="125.076" x2="89.3642" y2="248.049" gradientUnits="userSpaceOnUse">
<stop stop-color="#8B6312"/>
<stop offset="1" stop-color="#8B6312" stop-opacity="0"/>
</linearGradient>
<linearGradient id="paint5_linear_68_120" x1="323.099" y1="90.6657" x2="32.7987" y2="368.692" gradientUnits="userSpaceOnUse">
<stop stop-color="#637598"/>
<stop offset="0.11875" stop-color="#262E3D"/>
<stop offset="0.379166" stop-color="#262E3D"/>
<stop offset="1" stop-color="#161B24"/>
</linearGradient>
<linearGradient id="paint6_linear_68_120" x1="475.229" y1="187.813" x2="393.465" y2="289.376" gradientUnits="userSpaceOnUse">
<stop stop-color="#523A09"/>
<stop offset="1" stop-color="#523A09" stop-opacity="0"/>
<stop offset="1" stop-color="#523A09" stop-opacity="0"/>
</linearGradient>
<linearGradient id="paint7_linear_68_120" x1="343.6" y1="195.146" x2="485.862" y2="274.343" gradientUnits="userSpaceOnUse">
<stop stop-color="#755A22"/>
<stop offset="1" stop-color="#755A22" stop-opacity="0"/>
</linearGradient>
<linearGradient id="paint8_linear_68_120" x1="329.188" y1="143.617" x2="527.488" y2="369.661" gradientUnits="userSpaceOnUse">
<stop stop-color="#31353D"/>
<stop offset="1" stop-color="#1D1F24"/>
</linearGradient>
<linearGradient id="paint9_linear_68_120" x1="473.395" y1="193.679" x2="384.665" y2="288.643" gradientUnits="userSpaceOnUse">
<stop stop-color="#5F440C"/>
<stop offset="1" stop-color="#5F440C" stop-opacity="0"/>
</linearGradient>
<linearGradient id="paint10_linear_68_120" x1="354.599" y1="187.446" x2="476.329" y2="276.91" gradientUnits="userSpaceOnUse">
<stop stop-color="#8B6312"/>
<stop offset="1" stop-color="#8B6312" stop-opacity="0"/>
</linearGradient>
<linearGradient id="paint11_linear_68_120" x1="306.285" y1="162.412" x2="517.481" y2="364.678" gradientUnits="userSpaceOnUse">
<stop stop-color="#637598"/>
<stop offset="0.11875" stop-color="#262E3D"/>
<stop offset="0.379166" stop-color="#262E3D"/>
<stop offset="1" stop-color="#161B24"/>
</linearGradient>
</defs>
</svg>
